<mxfile host="Electron" agent="Mozilla/5.0 (Windows NT 10.0; Win64; x64) AppleWebKit/537.36 (KHTML, like Gecko) draw.io/25.0.2 Chrome/128.0.6613.186 Electron/32.2.5 Safari/537.36" version="25.0.2" pages="5">
  <diagram id="7r9uXSOZoSnOuJ5T40fA" name="1">
    <mxGraphModel dx="724" dy="428" grid="1" gridSize="10" guides="1" tooltips="1" connect="1" arrows="1" fold="1" page="1" pageScale="1" pageWidth="827" pageHeight="1169" math="0" shadow="0">
      <root>
        <mxCell id="0" />
        <mxCell id="1" parent="0" />
        <mxCell id="9l-jP4sQHJARViQ5AN28-1" value="Покупка книг" style="rounded=1;whiteSpace=wrap;html=1;arcSize=50;fontFamily=Times New Roman;fontSize=13;" parent="1" vertex="1">
          <mxGeometry x="40" y="40" width="200" height="40" as="geometry" />
        </mxCell>
        <mxCell id="9l-jP4sQHJARViQ5AN28-7" value="" style="endArrow=none;html=1;rounded=0;fontFamily=Times New Roman;fontSize=13;entryX=0.5;entryY=1;entryDx=0;entryDy=0;exitX=0.5;exitY=0;exitDx=0;exitDy=0;" parent="1" source="Ftyqp0MGlWDP13rYXztb-11" target="9l-jP4sQHJARViQ5AN28-1" edge="1">
          <mxGeometry width="50" height="50" relative="1" as="geometry">
            <mxPoint x="140" y="530" as="sourcePoint" />
            <mxPoint x="140" y="90" as="targetPoint" />
          </mxGeometry>
        </mxCell>
        <mxCell id="9l-jP4sQHJARViQ5AN28-20" value="Запрос к БД: поиск текущего баланса пользователя" style="rounded=0;whiteSpace=wrap;html=1;fontSize=13;fontFamily=Times New Roman;" parent="1" vertex="1">
          <mxGeometry x="40" y="160" width="200" height="40" as="geometry" />
        </mxCell>
        <mxCell id="9l-jP4sQHJARViQ5AN28-21" value="Вычисление нового баланса (за вычетом стоимости заказа)" style="rounded=0;whiteSpace=wrap;html=1;fontSize=13;fontFamily=Times New Roman;" parent="1" vertex="1">
          <mxGeometry x="40" y="220" width="200" height="40" as="geometry" />
        </mxCell>
        <mxCell id="9l-jP4sQHJARViQ5AN28-23" value="Запрос к БД: добавление заказа в историю заказов" style="rounded=0;whiteSpace=wrap;html=1;fontSize=13;fontFamily=Times New Roman;" parent="1" vertex="1">
          <mxGeometry x="40" y="390" width="200" height="40" as="geometry" />
        </mxCell>
        <mxCell id="1JKGezJpNN9EQ8rA29we-2" value="Вычисление стоимости заказа (суммирование цен всех книг)" style="rounded=0;whiteSpace=wrap;html=1;fontSize=13;fontFamily=Times New Roman;" parent="1" vertex="1">
          <mxGeometry x="40" y="100" width="200" height="40" as="geometry" />
        </mxCell>
        <mxCell id="YdwCk5x-UV3Zp61pGJ92-1" value="Формирование заказа" style="rounded=0;whiteSpace=wrap;html=1;fontSize=13;fontFamily=Times New Roman;" parent="1" vertex="1">
          <mxGeometry x="40" y="330" width="200" height="40" as="geometry" />
        </mxCell>
        <mxCell id="YdwCk5x-UV3Zp61pGJ92-2" value="Баланс не ниже нуля?" style="rhombus;whiteSpace=wrap;html=1;rounded=0;strokeWidth=1;fontFamily=Times New Roman;fontSize=13;" parent="1" vertex="1">
          <mxGeometry x="40" y="270" width="200" height="40" as="geometry" />
        </mxCell>
        <mxCell id="YdwCk5x-UV3Zp61pGJ92-4" value="" style="endArrow=openThin;html=1;fontFamily=Times New Roman;fontSize=13;endFill=0;rounded=0;edgeStyle=orthogonalEdgeStyle;exitX=1;exitY=0.5;exitDx=0;exitDy=0;" parent="1" source="YdwCk5x-UV3Zp61pGJ92-2" edge="1">
          <mxGeometry width="50" height="50" relative="1" as="geometry">
            <mxPoint x="200" y="400" as="sourcePoint" />
            <mxPoint x="140" y="500" as="targetPoint" />
            <Array as="points">
              <mxPoint x="270" y="290" />
              <mxPoint x="270" y="500" />
            </Array>
          </mxGeometry>
        </mxCell>
        <mxCell id="YdwCk5x-UV3Zp61pGJ92-5" value="Нет" style="text;html=1;strokeColor=none;fillColor=none;align=center;verticalAlign=middle;whiteSpace=wrap;rounded=0;fontFamily=Times New Roman;fontSize=13;" parent="1" vertex="1">
          <mxGeometry x="240" y="270" width="30" height="20" as="geometry" />
        </mxCell>
        <mxCell id="YdwCk5x-UV3Zp61pGJ92-6" value="Да" style="text;html=1;strokeColor=none;fillColor=none;align=center;verticalAlign=middle;whiteSpace=wrap;rounded=0;fontFamily=Times New Roman;fontSize=13;" parent="1" vertex="1">
          <mxGeometry x="140" y="310" width="20" height="20" as="geometry" />
        </mxCell>
        <mxCell id="Ftyqp0MGlWDP13rYXztb-1" value="1" style="text;html=1;strokeColor=none;fillColor=none;align=center;verticalAlign=middle;whiteSpace=wrap;rounded=0;fontFamily=Times New Roman;fontSize=13;" parent="1" vertex="1">
          <mxGeometry x="40" y="20" width="20" height="20" as="geometry" />
        </mxCell>
        <mxCell id="Ftyqp0MGlWDP13rYXztb-2" value="2" style="text;html=1;strokeColor=none;fillColor=none;align=center;verticalAlign=middle;whiteSpace=wrap;rounded=0;fontFamily=Times New Roman;fontSize=13;" parent="1" vertex="1">
          <mxGeometry x="40" y="80" width="20" height="20" as="geometry" />
        </mxCell>
        <mxCell id="Ftyqp0MGlWDP13rYXztb-3" value="3" style="text;html=1;strokeColor=none;fillColor=none;align=center;verticalAlign=middle;whiteSpace=wrap;rounded=0;fontFamily=Times New Roman;fontSize=13;" parent="1" vertex="1">
          <mxGeometry x="40" y="140" width="20" height="20" as="geometry" />
        </mxCell>
        <mxCell id="Ftyqp0MGlWDP13rYXztb-4" value="4" style="text;html=1;strokeColor=none;fillColor=none;align=center;verticalAlign=middle;whiteSpace=wrap;rounded=0;fontFamily=Times New Roman;fontSize=13;" parent="1" vertex="1">
          <mxGeometry x="40" y="200" width="20" height="20" as="geometry" />
        </mxCell>
        <mxCell id="Ftyqp0MGlWDP13rYXztb-6" value="6" style="text;html=1;strokeColor=none;fillColor=none;align=center;verticalAlign=middle;whiteSpace=wrap;rounded=0;fontFamily=Times New Roman;fontSize=13;" parent="1" vertex="1">
          <mxGeometry x="40" y="310" width="20" height="20" as="geometry" />
        </mxCell>
        <mxCell id="Ftyqp0MGlWDP13rYXztb-7" value="7" style="text;html=1;strokeColor=none;fillColor=none;align=center;verticalAlign=middle;whiteSpace=wrap;rounded=0;fontFamily=Times New Roman;fontSize=13;" parent="1" vertex="1">
          <mxGeometry x="40" y="370" width="20" height="20" as="geometry" />
        </mxCell>
        <mxCell id="Ftyqp0MGlWDP13rYXztb-8" value="8" style="text;html=1;strokeColor=none;fillColor=none;align=center;verticalAlign=middle;whiteSpace=wrap;rounded=0;fontFamily=Times New Roman;fontSize=13;" parent="1" vertex="1">
          <mxGeometry x="40" y="430" width="20" height="20" as="geometry" />
        </mxCell>
        <mxCell id="Ftyqp0MGlWDP13rYXztb-9" value="9" style="text;html=1;strokeColor=none;fillColor=none;align=center;verticalAlign=middle;whiteSpace=wrap;rounded=0;fontFamily=Times New Roman;fontSize=13;" parent="1" vertex="1">
          <mxGeometry x="40" y="490" width="20" height="20" as="geometry" />
        </mxCell>
        <mxCell id="Ftyqp0MGlWDP13rYXztb-10" value="Запрос к БД: обновление баланса пользователя" style="rounded=0;whiteSpace=wrap;html=1;fontSize=13;fontFamily=Times New Roman;" parent="1" vertex="1">
          <mxGeometry x="40" y="450" width="200" height="40" as="geometry" />
        </mxCell>
        <mxCell id="Ftyqp0MGlWDP13rYXztb-11" value="Конец" style="rounded=1;whiteSpace=wrap;html=1;arcSize=50;fontFamily=Times New Roman;fontSize=13;" parent="1" vertex="1">
          <mxGeometry x="40" y="510" width="200" height="40" as="geometry" />
        </mxCell>
        <mxCell id="p9wPWL6Ay_71JvyWbaLI-3" value="5" style="text;html=1;strokeColor=none;fillColor=none;align=center;verticalAlign=middle;whiteSpace=wrap;rounded=0;fontFamily=Times New Roman;fontSize=13;" vertex="1" parent="1">
          <mxGeometry x="40" y="270" width="20" height="20" as="geometry" />
        </mxCell>
      </root>
    </mxGraphModel>
  </diagram>
  <diagram id="iEiLP6hwHDg03WRnqjpB" name="2">
    <mxGraphModel dx="1050" dy="621" grid="1" gridSize="10" guides="1" tooltips="1" connect="1" arrows="1" fold="1" page="1" pageScale="1" pageWidth="827" pageHeight="1169" math="0" shadow="0">
      <root>
        <mxCell id="0" />
        <mxCell id="1" parent="0" />
        <mxCell id="9AVvM5piueSRgfrU14fL-1" value="Регистрация пользователя" style="rounded=1;whiteSpace=wrap;html=1;arcSize=50;fontFamily=Times New Roman;fontSize=13;" parent="1" vertex="1">
          <mxGeometry x="40" y="40" width="200" height="40" as="geometry" />
        </mxCell>
        <mxCell id="9AVvM5piueSRgfrU14fL-2" value="" style="endArrow=none;html=1;rounded=0;fontFamily=Times New Roman;fontSize=13;entryX=0.5;entryY=1;entryDx=0;entryDy=0;exitX=0.5;exitY=0;exitDx=0;exitDy=0;" parent="1" source="9AVvM5piueSRgfrU14fL-3" target="9AVvM5piueSRgfrU14fL-1" edge="1">
          <mxGeometry width="50" height="50" relative="1" as="geometry">
            <mxPoint x="140" y="470" as="sourcePoint" />
            <mxPoint x="140" y="90" as="targetPoint" />
          </mxGeometry>
        </mxCell>
        <mxCell id="9AVvM5piueSRgfrU14fL-3" value="Конец" style="rounded=1;whiteSpace=wrap;html=1;arcSize=50;fontFamily=Times New Roman;fontSize=13;" parent="1" vertex="1">
          <mxGeometry x="40" y="340" width="200" height="40" as="geometry" />
        </mxCell>
        <mxCell id="9AVvM5piueSRgfrU14fL-4" value="Конвертация пароля в массив символов" style="rounded=0;whiteSpace=wrap;html=1;fontSize=13;fontFamily=Times New Roman;" parent="1" vertex="1">
          <mxGeometry x="40" y="160" width="200" height="40" as="geometry" />
        </mxCell>
        <mxCell id="aMNADXhL_bkDzyk7B6XF-2" value="Создание инстанции BCrypt в режиме шифрования" style="rounded=0;whiteSpace=wrap;html=1;fontSize=13;fontFamily=Times New Roman;" parent="1" vertex="1">
          <mxGeometry x="40" y="100" width="200" height="40" as="geometry" />
        </mxCell>
        <mxCell id="aMNADXhL_bkDzyk7B6XF-3" value="Хэширование массива при помощи инстанции BCrypt" style="rounded=0;whiteSpace=wrap;html=1;fontSize=13;fontFamily=Times New Roman;" parent="1" vertex="1">
          <mxGeometry x="40" y="220" width="200" height="40" as="geometry" />
        </mxCell>
        <mxCell id="gGC06DuUhVM32VvHHOae-1" value="Запрос к БД: добавление имени пользователя и хэша пароля" style="rounded=0;whiteSpace=wrap;html=1;fontSize=13;fontFamily=Times New Roman;" parent="1" vertex="1">
          <mxGeometry x="40" y="280" width="200" height="40" as="geometry" />
        </mxCell>
        <mxCell id="X9lER-33poXTIaltRDD5-1" value="1" style="text;html=1;strokeColor=none;fillColor=none;align=center;verticalAlign=middle;whiteSpace=wrap;rounded=0;fontFamily=Times New Roman;fontSize=13;" parent="1" vertex="1">
          <mxGeometry x="40" y="20" width="20" height="20" as="geometry" />
        </mxCell>
        <mxCell id="X9lER-33poXTIaltRDD5-2" value="2" style="text;html=1;strokeColor=none;fillColor=none;align=center;verticalAlign=middle;whiteSpace=wrap;rounded=0;fontFamily=Times New Roman;fontSize=13;" parent="1" vertex="1">
          <mxGeometry x="40" y="80" width="20" height="20" as="geometry" />
        </mxCell>
        <mxCell id="X9lER-33poXTIaltRDD5-4" value="3" style="text;html=1;strokeColor=none;fillColor=none;align=center;verticalAlign=middle;whiteSpace=wrap;rounded=0;fontFamily=Times New Roman;fontSize=13;" parent="1" vertex="1">
          <mxGeometry x="40" y="140" width="20" height="20" as="geometry" />
        </mxCell>
        <mxCell id="X9lER-33poXTIaltRDD5-5" value="4&lt;span style=&quot;color: rgba(0, 0, 0, 0); font-family: monospace; font-size: 0px; text-align: start; text-wrap: nowrap;&quot;&gt;%3CmxGraphModel%3E%3Croot%3E%3CmxCell%20id%3D%220%22%2F%3E%3CmxCell%20id%3D%221%22%20parent%3D%220%22%2F%3E%3CmxCell%20id%3D%222%22%20value%3D%223%22%20style%3D%22text%3Bhtml%3D1%3BstrokeColor%3Dnone%3BfillColor%3Dnone%3Balign%3Dcenter%3BverticalAlign%3Dmiddle%3BwhiteSpace%3Dwrap%3Brounded%3D0%3BfontFamily%3DTimes%20New%20Roman%3BfontSize%3D13%3B%22%20vertex%3D%221%22%20parent%3D%221%22%3E%3CmxGeometry%20x%3D%22120%22%20y%3D%22130%22%20width%3D%2210%22%20height%3D%2210%22%20as%3D%22geometry%22%2F%3E%3C%2FmxCell%3E%3C%2Froot%3E%3C%2FmxGraphModel%3E&lt;/span&gt;" style="text;html=1;strokeColor=none;fillColor=none;align=center;verticalAlign=middle;whiteSpace=wrap;rounded=0;fontFamily=Times New Roman;fontSize=13;" parent="1" vertex="1">
          <mxGeometry x="40" y="200" width="20" height="20" as="geometry" />
        </mxCell>
        <mxCell id="X9lER-33poXTIaltRDD5-6" value="5" style="text;html=1;strokeColor=none;fillColor=none;align=center;verticalAlign=middle;whiteSpace=wrap;rounded=0;fontFamily=Times New Roman;fontSize=13;" parent="1" vertex="1">
          <mxGeometry x="40" y="260" width="20" height="20" as="geometry" />
        </mxCell>
        <mxCell id="X9lER-33poXTIaltRDD5-7" value="6" style="text;html=1;strokeColor=none;fillColor=none;align=center;verticalAlign=middle;whiteSpace=wrap;rounded=0;fontFamily=Times New Roman;fontSize=13;" parent="1" vertex="1">
          <mxGeometry x="40" y="320" width="20" height="20" as="geometry" />
        </mxCell>
      </root>
    </mxGraphModel>
  </diagram>
  <diagram id="ba2JzL7aQq1AlL1h-Ywk" name="3">
    <mxGraphModel dx="350" dy="207" grid="1" gridSize="10" guides="1" tooltips="1" connect="1" arrows="1" fold="1" page="1" pageScale="1" pageWidth="827" pageHeight="1169" math="0" shadow="0">
      <root>
        <mxCell id="0" />
        <mxCell id="1" parent="0" />
        <mxCell id="egrYM3d2Xebxwh4vJKBf-1" value="Генерация токена" style="rounded=1;whiteSpace=wrap;html=1;arcSize=50;fontFamily=Times New Roman;fontSize=13;" parent="1" vertex="1">
          <mxGeometry x="40" y="40" width="200" height="40" as="geometry" />
        </mxCell>
        <mxCell id="egrYM3d2Xebxwh4vJKBf-2" value="" style="endArrow=none;html=1;rounded=0;fontFamily=Times New Roman;fontSize=13;entryX=0.5;entryY=1;entryDx=0;entryDy=0;exitX=0.5;exitY=0;exitDx=0;exitDy=0;" parent="1" source="egrYM3d2Xebxwh4vJKBf-3" target="egrYM3d2Xebxwh4vJKBf-1" edge="1">
          <mxGeometry width="50" height="50" relative="1" as="geometry">
            <mxPoint x="140" y="470" as="sourcePoint" />
            <mxPoint x="140" y="90" as="targetPoint" />
          </mxGeometry>
        </mxCell>
        <mxCell id="egrYM3d2Xebxwh4vJKBf-3" value="Конец" style="rounded=1;whiteSpace=wrap;html=1;arcSize=50;fontFamily=Times New Roman;fontSize=13;" parent="1" vertex="1">
          <mxGeometry x="40" y="460" width="200" height="40" as="geometry" />
        </mxCell>
        <mxCell id="egrYM3d2Xebxwh4vJKBf-4" value="Добавление свойства «Имя пользователя»" style="rounded=0;whiteSpace=wrap;html=1;fontSize=13;fontFamily=Times New Roman;" parent="1" vertex="1">
          <mxGeometry x="40" y="160" width="200" height="40" as="geometry" />
        </mxCell>
        <mxCell id="egrYM3d2Xebxwh4vJKBf-5" value="Создание инстанции JWT" style="rounded=0;whiteSpace=wrap;html=1;fontSize=13;fontFamily=Times New Roman;" parent="1" vertex="1">
          <mxGeometry x="40" y="100" width="200" height="40" as="geometry" />
        </mxCell>
        <mxCell id="egrYM3d2Xebxwh4vJKBf-7" value="Добавление свойства «Пароль пользователя»" style="rounded=0;whiteSpace=wrap;html=1;fontSize=13;fontFamily=Times New Roman;" parent="1" vertex="1">
          <mxGeometry x="40" y="220" width="200" height="40" as="geometry" />
        </mxCell>
        <mxCell id="egrYM3d2Xebxwh4vJKBf-15" value="Инициализация алгоритма HMAC256" style="rounded=0;whiteSpace=wrap;html=1;fontSize=13;fontFamily=Times New Roman;" parent="1" vertex="1">
          <mxGeometry x="40" y="280" width="200" height="40" as="geometry" />
        </mxCell>
        <mxCell id="egrYM3d2Xebxwh4vJKBf-17" value="Подпись инстанции JWT алгоритмом" style="rounded=0;whiteSpace=wrap;html=1;fontSize=13;fontFamily=Times New Roman;" parent="1" vertex="1">
          <mxGeometry x="40" y="340" width="200" height="40" as="geometry" />
        </mxCell>
        <mxCell id="XDdTgQ_YRFskmWHatcWO-1" value="Формирование токена" style="rounded=0;whiteSpace=wrap;html=1;fontSize=13;fontFamily=Times New Roman;" parent="1" vertex="1">
          <mxGeometry x="40" y="400" width="200" height="40" as="geometry" />
        </mxCell>
        <mxCell id="sBeOSiamOB38CykXQWeW-1" value="1" style="text;html=1;strokeColor=none;fillColor=none;align=center;verticalAlign=middle;whiteSpace=wrap;rounded=0;fontFamily=Times New Roman;fontSize=13;" parent="1" vertex="1">
          <mxGeometry x="40" y="20" width="20" height="20" as="geometry" />
        </mxCell>
        <mxCell id="sBeOSiamOB38CykXQWeW-2" value="2&lt;span style=&quot;color: rgba(0, 0, 0, 0); font-family: monospace; font-size: 0px; text-align: start; text-wrap: nowrap;&quot;&gt;%3CmxGraphModel%3E%3Croot%3E%3CmxCell%20id%3D%220%22%2F%3E%3CmxCell%20id%3D%221%22%20parent%3D%220%22%2F%3E%3CmxCell%20id%3D%222%22%20value%3D%221%22%20style%3D%22text%3Bhtml%3D1%3BstrokeColor%3Dnone%3BfillColor%3Dnone%3Balign%3Dcenter%3BverticalAlign%3Dmiddle%3BwhiteSpace%3Dwrap%3Brounded%3D0%3BfontFamily%3DTimes%20New%20Roman%3BfontSize%3D13%3B%22%20vertex%3D%221%22%20parent%3D%221%22%3E%3CmxGeometry%20x%3D%22120%22%20y%3D%2210%22%20width%3D%2210%22%20height%3D%2210%22%20as%3D%22geometry%22%2F%3E%3C%2FmxCell%3E%3C%2Froot%3E%3C%2FmxGraphModel%3E&lt;/span&gt;" style="text;html=1;strokeColor=none;fillColor=none;align=center;verticalAlign=middle;whiteSpace=wrap;rounded=0;fontFamily=Times New Roman;fontSize=13;" parent="1" vertex="1">
          <mxGeometry x="40" y="80" width="20" height="20" as="geometry" />
        </mxCell>
        <mxCell id="sBeOSiamOB38CykXQWeW-3" value="3" style="text;html=1;strokeColor=none;fillColor=none;align=center;verticalAlign=middle;whiteSpace=wrap;rounded=0;fontFamily=Times New Roman;fontSize=13;" parent="1" vertex="1">
          <mxGeometry x="40" y="140" width="20" height="20" as="geometry" />
        </mxCell>
        <mxCell id="sBeOSiamOB38CykXQWeW-4" value="4" style="text;html=1;strokeColor=none;fillColor=none;align=center;verticalAlign=middle;whiteSpace=wrap;rounded=0;fontFamily=Times New Roman;fontSize=13;" parent="1" vertex="1">
          <mxGeometry x="40" y="200" width="20" height="20" as="geometry" />
        </mxCell>
        <mxCell id="sBeOSiamOB38CykXQWeW-5" value="5" style="text;html=1;strokeColor=none;fillColor=none;align=center;verticalAlign=middle;whiteSpace=wrap;rounded=0;fontFamily=Times New Roman;fontSize=13;" parent="1" vertex="1">
          <mxGeometry x="40" y="260" width="20" height="20" as="geometry" />
        </mxCell>
        <mxCell id="sBeOSiamOB38CykXQWeW-6" value="6" style="text;html=1;strokeColor=none;fillColor=none;align=center;verticalAlign=middle;whiteSpace=wrap;rounded=0;fontFamily=Times New Roman;fontSize=13;" parent="1" vertex="1">
          <mxGeometry x="40" y="320" width="20" height="20" as="geometry" />
        </mxCell>
        <mxCell id="sBeOSiamOB38CykXQWeW-7" value="7" style="text;html=1;strokeColor=none;fillColor=none;align=center;verticalAlign=middle;whiteSpace=wrap;rounded=0;fontFamily=Times New Roman;fontSize=13;" parent="1" vertex="1">
          <mxGeometry x="40" y="380" width="20" height="20" as="geometry" />
        </mxCell>
        <mxCell id="sBeOSiamOB38CykXQWeW-8" value="8" style="text;html=1;strokeColor=none;fillColor=none;align=center;verticalAlign=middle;whiteSpace=wrap;rounded=0;fontFamily=Times New Roman;fontSize=13;" parent="1" vertex="1">
          <mxGeometry x="40" y="440" width="20" height="20" as="geometry" />
        </mxCell>
      </root>
    </mxGraphModel>
  </diagram>
  <diagram id="MwsY6O5KB0IFcmTc-mnr" name="4">
    <mxGraphModel dx="1235" dy="731" grid="1" gridSize="10" guides="1" tooltips="1" connect="1" arrows="1" fold="1" page="1" pageScale="1" pageWidth="827" pageHeight="1169" math="0" shadow="0">
      <root>
        <mxCell id="0" />
        <mxCell id="1" parent="0" />
        <mxCell id="sL-gRMZxmV7YcH1cUP0z-1" value="Декомпозиция токена" style="rounded=1;whiteSpace=wrap;html=1;arcSize=50;fontFamily=Times New Roman;fontSize=13;" parent="1" vertex="1">
          <mxGeometry x="40" y="40" width="200" height="40" as="geometry" />
        </mxCell>
        <mxCell id="sL-gRMZxmV7YcH1cUP0z-2" value="" style="endArrow=none;html=1;rounded=0;fontFamily=Times New Roman;fontSize=13;entryX=0.5;entryY=1;entryDx=0;entryDy=0;exitX=0.5;exitY=0;exitDx=0;exitDy=0;" parent="1" source="sL-gRMZxmV7YcH1cUP0z-3" target="sL-gRMZxmV7YcH1cUP0z-1" edge="1">
          <mxGeometry width="50" height="50" relative="1" as="geometry">
            <mxPoint x="140" y="470" as="sourcePoint" />
            <mxPoint x="140" y="90" as="targetPoint" />
          </mxGeometry>
        </mxCell>
        <mxCell id="sL-gRMZxmV7YcH1cUP0z-3" value="Конец" style="rounded=1;whiteSpace=wrap;html=1;arcSize=50;fontFamily=Times New Roman;fontSize=13;" parent="1" vertex="1">
          <mxGeometry x="40" y="490" width="200" height="40" as="geometry" />
        </mxCell>
        <mxCell id="sL-gRMZxmV7YcH1cUP0z-5" value="Декодирование токена через JWT" style="rounded=0;whiteSpace=wrap;html=1;fontSize=13;fontFamily=Times New Roman;" parent="1" vertex="1">
          <mxGeometry x="40" y="100" width="200" height="40" as="geometry" />
        </mxCell>
        <mxCell id="sL-gRMZxmV7YcH1cUP0z-7" value="Извлечение свойства «Пароль пользователя»" style="rounded=0;whiteSpace=wrap;html=1;fontSize=13;fontFamily=Times New Roman;" parent="1" vertex="1">
          <mxGeometry x="40" y="320" width="200" height="40" as="geometry" />
        </mxCell>
        <mxCell id="sL-gRMZxmV7YcH1cUP0z-9" value="Формирование объекта токена" style="rounded=0;whiteSpace=wrap;html=1;fontSize=13;fontFamily=Times New Roman;" parent="1" vertex="1">
          <mxGeometry x="40" y="430" width="200" height="40" as="geometry" />
        </mxCell>
        <mxCell id="sL-gRMZxmV7YcH1cUP0z-11" value="Извлечение свойства «Имя пользователя»" style="rounded=0;whiteSpace=wrap;html=1;fontSize=13;fontFamily=Times New Roman;" parent="1" vertex="1">
          <mxGeometry x="40" y="210" width="200" height="40" as="geometry" />
        </mxCell>
        <mxCell id="3M8ZQJa-dmx2yv57DCay-1" value="Токен не истёк?" style="rhombus;whiteSpace=wrap;html=1;rounded=0;strokeWidth=1;fontFamily=Times New Roman;fontSize=13;" parent="1" vertex="1">
          <mxGeometry x="40" y="150" width="200" height="40" as="geometry" />
        </mxCell>
        <mxCell id="hWD9xwt4Y-wgb9HQ6NJg-2" style="edgeStyle=orthogonalEdgeStyle;rounded=0;orthogonalLoop=1;jettySize=auto;html=1;exitX=1;exitY=0.5;exitDx=0;exitDy=0;endArrow=none;endFill=0;" parent="1" source="3M8ZQJa-dmx2yv57DCay-2" edge="1">
          <mxGeometry relative="1" as="geometry">
            <mxPoint x="270.0000000000001" y="280.05555555555554" as="targetPoint" />
          </mxGeometry>
        </mxCell>
        <mxCell id="3M8ZQJa-dmx2yv57DCay-2" value="Ошибки нет?" style="rhombus;whiteSpace=wrap;html=1;rounded=0;strokeWidth=1;fontFamily=Times New Roman;fontSize=13;" parent="1" vertex="1">
          <mxGeometry x="40" y="260" width="200" height="40" as="geometry" />
        </mxCell>
        <mxCell id="hWD9xwt4Y-wgb9HQ6NJg-3" style="edgeStyle=orthogonalEdgeStyle;rounded=0;orthogonalLoop=1;jettySize=auto;html=1;exitX=1;exitY=0.5;exitDx=0;exitDy=0;endArrow=none;endFill=0;" parent="1" source="3M8ZQJa-dmx2yv57DCay-3" edge="1">
          <mxGeometry relative="1" as="geometry">
            <mxPoint x="270.0000000000001" y="390.05555555555554" as="targetPoint" />
          </mxGeometry>
        </mxCell>
        <mxCell id="3M8ZQJa-dmx2yv57DCay-3" value="Ошибки нет?" style="rhombus;whiteSpace=wrap;html=1;rounded=0;strokeWidth=1;fontFamily=Times New Roman;fontSize=13;" parent="1" vertex="1">
          <mxGeometry x="40" y="370" width="200" height="40" as="geometry" />
        </mxCell>
        <mxCell id="LYrYM_m5HwezklCfOJl3-1" value="" style="endArrow=openThin;html=1;fontFamily=Times New Roman;fontSize=13;endFill=0;rounded=0;edgeStyle=orthogonalEdgeStyle;" parent="1" edge="1">
          <mxGeometry width="50" height="50" relative="1" as="geometry">
            <mxPoint x="240" y="170" as="sourcePoint" />
            <mxPoint x="140" y="480" as="targetPoint" />
            <Array as="points">
              <mxPoint x="270" y="170" />
              <mxPoint x="270" y="480" />
            </Array>
          </mxGeometry>
        </mxCell>
        <mxCell id="fnB_w9jx0adKs-NCsi5l-1" value="Нет" style="text;html=1;strokeColor=none;fillColor=none;align=center;verticalAlign=middle;whiteSpace=wrap;rounded=0;fontFamily=Times New Roman;fontSize=13;" parent="1" vertex="1">
          <mxGeometry x="240" y="150" width="30" height="20" as="geometry" />
        </mxCell>
        <mxCell id="fnB_w9jx0adKs-NCsi5l-2" value="Нет" style="text;html=1;strokeColor=none;fillColor=none;align=center;verticalAlign=middle;whiteSpace=wrap;rounded=0;fontFamily=Times New Roman;fontSize=13;" parent="1" vertex="1">
          <mxGeometry x="240" y="260" width="30" height="20" as="geometry" />
        </mxCell>
        <mxCell id="fnB_w9jx0adKs-NCsi5l-3" value="Нет" style="text;html=1;strokeColor=none;fillColor=none;align=center;verticalAlign=middle;whiteSpace=wrap;rounded=0;fontFamily=Times New Roman;fontSize=13;" parent="1" vertex="1">
          <mxGeometry x="240" y="370" width="30" height="20" as="geometry" />
        </mxCell>
        <mxCell id="fnB_w9jx0adKs-NCsi5l-4" value="Да" style="text;html=1;strokeColor=none;fillColor=none;align=center;verticalAlign=middle;whiteSpace=wrap;rounded=0;fontFamily=Times New Roman;fontSize=13;" parent="1" vertex="1">
          <mxGeometry x="140" y="190" width="20" height="20" as="geometry" />
        </mxCell>
        <mxCell id="fnB_w9jx0adKs-NCsi5l-5" value="Да" style="text;html=1;strokeColor=none;fillColor=none;align=center;verticalAlign=middle;whiteSpace=wrap;rounded=0;fontFamily=Times New Roman;fontSize=13;" parent="1" vertex="1">
          <mxGeometry x="140" y="300" width="20" height="20" as="geometry" />
        </mxCell>
        <mxCell id="fnB_w9jx0adKs-NCsi5l-6" value="Да" style="text;html=1;strokeColor=none;fillColor=none;align=center;verticalAlign=middle;whiteSpace=wrap;rounded=0;fontFamily=Times New Roman;fontSize=13;" parent="1" vertex="1">
          <mxGeometry x="140" y="410" width="20" height="20" as="geometry" />
        </mxCell>
        <mxCell id="H3Bf8P56TjKPYkfo_MVy-1" value="1" style="text;html=1;strokeColor=none;fillColor=none;align=center;verticalAlign=middle;whiteSpace=wrap;rounded=0;fontFamily=Times New Roman;fontSize=13;" parent="1" vertex="1">
          <mxGeometry x="40" y="20" width="20" height="20" as="geometry" />
        </mxCell>
        <mxCell id="H3Bf8P56TjKPYkfo_MVy-2" value="2" style="text;html=1;strokeColor=none;fillColor=none;align=center;verticalAlign=middle;whiteSpace=wrap;rounded=0;fontFamily=Times New Roman;fontSize=13;" parent="1" vertex="1">
          <mxGeometry x="40" y="80" width="20" height="20" as="geometry" />
        </mxCell>
        <mxCell id="H3Bf8P56TjKPYkfo_MVy-3" value="3" style="text;html=1;strokeColor=none;fillColor=none;align=center;verticalAlign=middle;whiteSpace=wrap;rounded=0;fontFamily=Times New Roman;fontSize=13;" parent="1" vertex="1">
          <mxGeometry x="40" y="150" width="20" height="20" as="geometry" />
        </mxCell>
        <mxCell id="H3Bf8P56TjKPYkfo_MVy-4" value="4" style="text;html=1;strokeColor=none;fillColor=none;align=center;verticalAlign=middle;whiteSpace=wrap;rounded=0;fontFamily=Times New Roman;fontSize=13;" parent="1" vertex="1">
          <mxGeometry x="40" y="190" width="20" height="20" as="geometry" />
        </mxCell>
        <mxCell id="H3Bf8P56TjKPYkfo_MVy-5" value="5" style="text;html=1;strokeColor=none;fillColor=none;align=center;verticalAlign=middle;whiteSpace=wrap;rounded=0;fontFamily=Times New Roman;fontSize=13;" parent="1" vertex="1">
          <mxGeometry x="40" y="260" width="20" height="20" as="geometry" />
        </mxCell>
        <mxCell id="H3Bf8P56TjKPYkfo_MVy-6" value="6" style="text;html=1;strokeColor=none;fillColor=none;align=center;verticalAlign=middle;whiteSpace=wrap;rounded=0;fontFamily=Times New Roman;fontSize=13;" parent="1" vertex="1">
          <mxGeometry x="40" y="300" width="20" height="20" as="geometry" />
        </mxCell>
        <mxCell id="H3Bf8P56TjKPYkfo_MVy-7" value="7" style="text;html=1;strokeColor=none;fillColor=none;align=center;verticalAlign=middle;whiteSpace=wrap;rounded=0;fontFamily=Times New Roman;fontSize=13;" parent="1" vertex="1">
          <mxGeometry x="40" y="370" width="20" height="20" as="geometry" />
        </mxCell>
        <mxCell id="H3Bf8P56TjKPYkfo_MVy-8" value="8" style="text;html=1;strokeColor=none;fillColor=none;align=center;verticalAlign=middle;whiteSpace=wrap;rounded=0;fontFamily=Times New Roman;fontSize=13;" parent="1" vertex="1">
          <mxGeometry x="40" y="410" width="20" height="20" as="geometry" />
        </mxCell>
        <mxCell id="H3Bf8P56TjKPYkfo_MVy-9" value="9" style="text;html=1;strokeColor=none;fillColor=none;align=center;verticalAlign=middle;whiteSpace=wrap;rounded=0;fontFamily=Times New Roman;fontSize=13;" parent="1" vertex="1">
          <mxGeometry x="40" y="470" width="20" height="20" as="geometry" />
        </mxCell>
      </root>
    </mxGraphModel>
  </diagram>
  <diagram id="GNP58Dojkwb8FGT9shAY" name="5">
    <mxGraphModel dx="1167" dy="690" grid="1" gridSize="10" guides="1" tooltips="1" connect="1" arrows="1" fold="1" page="1" pageScale="1" pageWidth="827" pageHeight="1169" math="0" shadow="0">
      <root>
        <mxCell id="0" />
        <mxCell id="1" parent="0" />
        <mxCell id="L2uMK8je_W_jP90VrusE-1" value="Валидация данных входа" style="rounded=1;whiteSpace=wrap;html=1;arcSize=50;fontFamily=Times New Roman;fontSize=13;" parent="1" vertex="1">
          <mxGeometry x="40" y="40" width="200" height="40" as="geometry" />
        </mxCell>
        <mxCell id="L2uMK8je_W_jP90VrusE-2" value="" style="endArrow=none;html=1;rounded=0;fontFamily=Times New Roman;fontSize=13;exitX=0.5;exitY=0;exitDx=0;exitDy=0;entryX=0.5;entryY=1;entryDx=0;entryDy=0;" parent="1" source="L2uMK8je_W_jP90VrusE-5" target="L2uMK8je_W_jP90VrusE-1" edge="1">
          <mxGeometry width="50" height="50" relative="1" as="geometry">
            <mxPoint x="141" y="500" as="sourcePoint" />
            <mxPoint x="361" y="140" as="targetPoint" />
          </mxGeometry>
        </mxCell>
        <mxCell id="L2uMK8je_W_jP90VrusE-5" value="Конец" style="rounded=1;whiteSpace=wrap;html=1;arcSize=50;fontFamily=Times New Roman;fontSize=13;" parent="1" vertex="1">
          <mxGeometry x="40" y="610" width="200" height="40" as="geometry" />
        </mxCell>
        <mxCell id="or5ddbn4IKaeLGVNXyOV-2" value="Да" style="text;html=1;strokeColor=none;fillColor=none;align=center;verticalAlign=middle;whiteSpace=wrap;rounded=0;fontFamily=Times New Roman;fontSize=13;" parent="1" vertex="1">
          <mxGeometry x="141" y="130" width="20" height="20" as="geometry" />
        </mxCell>
        <mxCell id="ZXt53XxMr3CSNdOA2Yi--4" style="edgeStyle=orthogonalEdgeStyle;rounded=0;orthogonalLoop=1;jettySize=auto;html=1;exitX=1;exitY=0.5;exitDx=0;exitDy=0;endArrow=openThin;endFill=0;" parent="1" source="djIlxj63_hPniDFFOrX5-1" edge="1">
          <mxGeometry relative="1" as="geometry">
            <mxPoint x="141" y="600" as="targetPoint" />
            <Array as="points">
              <mxPoint x="270" y="110" />
              <mxPoint x="270" y="600" />
            </Array>
          </mxGeometry>
        </mxCell>
        <mxCell id="djIlxj63_hPniDFFOrX5-1" value="Имя существует?" style="rhombus;whiteSpace=wrap;html=1;rounded=0;strokeWidth=1;fontFamily=Times New Roman;fontSize=13;" parent="1" vertex="1">
          <mxGeometry x="40" y="90" width="200" height="40" as="geometry" />
        </mxCell>
        <mxCell id="YMYoVdNSWAVJIb1Ye8kt-3" style="edgeStyle=orthogonalEdgeStyle;rounded=0;orthogonalLoop=1;jettySize=auto;html=1;exitX=1;exitY=0.5;exitDx=0;exitDy=0;endArrow=none;endFill=0;" parent="1" source="_2F8V-4QPCXpnm2XgE9o-4" edge="1">
          <mxGeometry relative="1" as="geometry">
            <mxPoint x="271" y="170" as="targetPoint" />
          </mxGeometry>
        </mxCell>
        <mxCell id="_2F8V-4QPCXpnm2XgE9o-4" value="Пароль существует?" style="rhombus;whiteSpace=wrap;html=1;rounded=0;strokeWidth=1;fontFamily=Times New Roman;fontSize=13;" parent="1" vertex="1">
          <mxGeometry x="40" y="150" width="200" height="40" as="geometry" />
        </mxCell>
        <mxCell id="_2F8V-4QPCXpnm2XgE9o-7" value="Да" style="text;html=1;strokeColor=none;fillColor=none;align=center;verticalAlign=middle;whiteSpace=wrap;rounded=0;fontFamily=Times New Roman;fontSize=13;" parent="1" vertex="1">
          <mxGeometry x="141" y="190" width="20" height="20" as="geometry" />
        </mxCell>
        <mxCell id="_2F8V-4QPCXpnm2XgE9o-8" value="Создание инстанции BCrypt в режиме проверки" style="rounded=0;whiteSpace=wrap;html=1;fontSize=13;fontFamily=Times New Roman;" parent="1" vertex="1">
          <mxGeometry x="40" y="380" width="200" height="40" as="geometry" />
        </mxCell>
        <mxCell id="wy5Ps6iLrTnRwgRA1IoD-1" value="Запрос к БД: поиск пользователя с таким же именем" style="rounded=0;whiteSpace=wrap;html=1;fontSize=13;fontFamily=Times New Roman;" parent="1" vertex="1">
          <mxGeometry x="40" y="210" width="200" height="40" as="geometry" />
        </mxCell>
        <mxCell id="YMYoVdNSWAVJIb1Ye8kt-2" style="edgeStyle=orthogonalEdgeStyle;rounded=0;orthogonalLoop=1;jettySize=auto;html=1;exitX=1;exitY=0.5;exitDx=0;exitDy=0;endArrow=none;endFill=0;" parent="1" source="wy5Ps6iLrTnRwgRA1IoD-2" edge="1">
          <mxGeometry relative="1" as="geometry">
            <mxPoint x="271" y="280" as="targetPoint" />
          </mxGeometry>
        </mxCell>
        <mxCell id="wy5Ps6iLrTnRwgRA1IoD-2" value="Ошибки нет?" style="rhombus;whiteSpace=wrap;html=1;rounded=0;strokeWidth=1;fontFamily=Times New Roman;fontSize=13;" parent="1" vertex="1">
          <mxGeometry x="40" y="260" width="200" height="40" as="geometry" />
        </mxCell>
        <mxCell id="wy5Ps6iLrTnRwgRA1IoD-3" value="Да" style="text;html=1;strokeColor=none;fillColor=none;align=center;verticalAlign=middle;whiteSpace=wrap;rounded=0;fontFamily=Times New Roman;fontSize=13;" parent="1" vertex="1">
          <mxGeometry x="141" y="300" width="20" height="20" as="geometry" />
        </mxCell>
        <mxCell id="wy5Ps6iLrTnRwgRA1IoD-5" value="Нет" style="text;html=1;strokeColor=none;fillColor=none;align=center;verticalAlign=middle;whiteSpace=wrap;rounded=0;fontFamily=Times New Roman;fontSize=13;" parent="1" vertex="1">
          <mxGeometry x="240" y="260" width="30" height="20" as="geometry" />
        </mxCell>
        <mxCell id="wy5Ps6iLrTnRwgRA1IoD-7" value="Проверка пароля и хэша из БД на соответствие через BCrypt&amp;nbsp;" style="rounded=0;whiteSpace=wrap;html=1;fontSize=13;fontFamily=Times New Roman;" parent="1" vertex="1">
          <mxGeometry x="40" y="440" width="200" height="40" as="geometry" />
        </mxCell>
        <mxCell id="wy5Ps6iLrTnRwgRA1IoD-8" value="Авторизирован" style="rounded=0;whiteSpace=wrap;html=1;fontSize=13;fontFamily=Times New Roman;" parent="1" vertex="1">
          <mxGeometry x="40" y="550" width="200" height="40" as="geometry" />
        </mxCell>
        <mxCell id="3Qfpei1svfpylFHuARvU-1" value="Нет" style="text;html=1;strokeColor=none;fillColor=none;align=center;verticalAlign=middle;whiteSpace=wrap;rounded=0;fontFamily=Times New Roman;fontSize=13;" parent="1" vertex="1">
          <mxGeometry x="240" y="90" width="30" height="20" as="geometry" />
        </mxCell>
        <mxCell id="3Qfpei1svfpylFHuARvU-2" value="Нет" style="text;html=1;strokeColor=none;fillColor=none;align=center;verticalAlign=middle;whiteSpace=wrap;rounded=0;fontFamily=Times New Roman;fontSize=13;" parent="1" vertex="1">
          <mxGeometry x="240" y="150" width="30" height="20" as="geometry" />
        </mxCell>
        <mxCell id="ZXt53XxMr3CSNdOA2Yi--1" value="Получение хэша пароля найденного в БД пользователя" style="rounded=0;whiteSpace=wrap;html=1;fontSize=13;fontFamily=Times New Roman;" parent="1" vertex="1">
          <mxGeometry x="40" y="320" width="200" height="40" as="geometry" />
        </mxCell>
        <mxCell id="YMYoVdNSWAVJIb1Ye8kt-1" style="edgeStyle=orthogonalEdgeStyle;rounded=0;orthogonalLoop=1;jettySize=auto;html=1;exitX=1;exitY=0.5;exitDx=0;exitDy=0;endArrow=none;endFill=0;" parent="1" source="ZXt53XxMr3CSNdOA2Yi--2" edge="1">
          <mxGeometry relative="1" as="geometry">
            <mxPoint x="271" y="510" as="targetPoint" />
          </mxGeometry>
        </mxCell>
        <mxCell id="ZXt53XxMr3CSNdOA2Yi--2" value="Ошибки нет?" style="rhombus;whiteSpace=wrap;html=1;rounded=0;strokeWidth=1;fontFamily=Times New Roman;fontSize=13;" parent="1" vertex="1">
          <mxGeometry x="40" y="490" width="200" height="40" as="geometry" />
        </mxCell>
        <mxCell id="ZXt53XxMr3CSNdOA2Yi--8" value="Нет" style="text;html=1;strokeColor=none;fillColor=none;align=center;verticalAlign=middle;whiteSpace=wrap;rounded=0;fontFamily=Times New Roman;fontSize=13;" parent="1" vertex="1">
          <mxGeometry x="240" y="490" width="30" height="20" as="geometry" />
        </mxCell>
        <mxCell id="ZXt53XxMr3CSNdOA2Yi--9" value="Да" style="text;html=1;strokeColor=none;fillColor=none;align=center;verticalAlign=middle;whiteSpace=wrap;rounded=0;fontFamily=Times New Roman;fontSize=13;" parent="1" vertex="1">
          <mxGeometry x="141" y="530" width="20" height="20" as="geometry" />
        </mxCell>
        <mxCell id="vCk0SyMcBohHWlGUC8is-1" value="1" style="text;html=1;strokeColor=none;fillColor=none;align=center;verticalAlign=middle;whiteSpace=wrap;rounded=0;fontFamily=Times New Roman;fontSize=13;" parent="1" vertex="1">
          <mxGeometry x="40" y="20" width="20" height="20" as="geometry" />
        </mxCell>
        <mxCell id="vCk0SyMcBohHWlGUC8is-2" value="2" style="text;html=1;strokeColor=none;fillColor=none;align=center;verticalAlign=middle;whiteSpace=wrap;rounded=0;fontFamily=Times New Roman;fontSize=13;" parent="1" vertex="1">
          <mxGeometry x="40" y="90" width="20" height="20" as="geometry" />
        </mxCell>
        <mxCell id="vCk0SyMcBohHWlGUC8is-3" value="3" style="text;html=1;strokeColor=none;fillColor=none;align=center;verticalAlign=middle;whiteSpace=wrap;rounded=0;fontFamily=Times New Roman;fontSize=13;" parent="1" vertex="1">
          <mxGeometry x="40" y="150" width="20" height="20" as="geometry" />
        </mxCell>
        <mxCell id="vCk0SyMcBohHWlGUC8is-4" value="4" style="text;html=1;strokeColor=none;fillColor=none;align=center;verticalAlign=middle;whiteSpace=wrap;rounded=0;fontFamily=Times New Roman;fontSize=13;" parent="1" vertex="1">
          <mxGeometry x="40" y="190" width="20" height="20" as="geometry" />
        </mxCell>
        <mxCell id="vCk0SyMcBohHWlGUC8is-5" value="5" style="text;html=1;strokeColor=none;fillColor=none;align=center;verticalAlign=middle;whiteSpace=wrap;rounded=0;fontFamily=Times New Roman;fontSize=13;" parent="1" vertex="1">
          <mxGeometry x="40" y="260" width="20" height="20" as="geometry" />
        </mxCell>
        <mxCell id="vCk0SyMcBohHWlGUC8is-6" value="6" style="text;html=1;strokeColor=none;fillColor=none;align=center;verticalAlign=middle;whiteSpace=wrap;rounded=0;fontFamily=Times New Roman;fontSize=13;" parent="1" vertex="1">
          <mxGeometry x="40" y="300" width="20" height="20" as="geometry" />
        </mxCell>
        <mxCell id="vCk0SyMcBohHWlGUC8is-7" value="7" style="text;html=1;strokeColor=none;fillColor=none;align=center;verticalAlign=middle;whiteSpace=wrap;rounded=0;fontFamily=Times New Roman;fontSize=13;" parent="1" vertex="1">
          <mxGeometry x="40" y="360" width="20" height="20" as="geometry" />
        </mxCell>
        <mxCell id="vCk0SyMcBohHWlGUC8is-8" value="8" style="text;html=1;strokeColor=none;fillColor=none;align=center;verticalAlign=middle;whiteSpace=wrap;rounded=0;fontFamily=Times New Roman;fontSize=13;" parent="1" vertex="1">
          <mxGeometry x="40" y="420" width="20" height="20" as="geometry" />
        </mxCell>
        <mxCell id="vCk0SyMcBohHWlGUC8is-9" value="9" style="text;html=1;strokeColor=none;fillColor=none;align=center;verticalAlign=middle;whiteSpace=wrap;rounded=0;fontFamily=Times New Roman;fontSize=13;" parent="1" vertex="1">
          <mxGeometry x="40" y="490" width="20" height="20" as="geometry" />
        </mxCell>
        <mxCell id="vCk0SyMcBohHWlGUC8is-10" value="10" style="text;html=1;strokeColor=none;fillColor=none;align=center;verticalAlign=middle;whiteSpace=wrap;rounded=0;fontFamily=Times New Roman;fontSize=13;" parent="1" vertex="1">
          <mxGeometry x="40" y="530" width="20" height="20" as="geometry" />
        </mxCell>
        <mxCell id="vCk0SyMcBohHWlGUC8is-11" value="11" style="text;html=1;strokeColor=none;fillColor=none;align=center;verticalAlign=middle;whiteSpace=wrap;rounded=0;fontFamily=Times New Roman;fontSize=13;" parent="1" vertex="1">
          <mxGeometry x="40" y="590" width="20" height="20" as="geometry" />
        </mxCell>
      </root>
    </mxGraphModel>
  </diagram>
</mxfile>
